<?xml version="1.0" encoding="UTF-8" standalone="no"?>
<!DOCTYPE svg PUBLIC "-//W3C//DTD SVG 1.1//EN"
 "http://www.w3.org/Graphics/SVG/1.1/DTD/svg11.dtd">
<!-- Generated by graphviz version 2.36.0 (20140111.2315)
 -->
<!-- Title: main_branch Pages: 1 -->
<svg width="2980pt" height="1234pt"
 viewBox="0.00 0.00 2980.00 1234.00" xmlns="http://www.w3.org/2000/svg" xmlns:xlink="http://www.w3.org/1999/xlink">
<g id="graph0" class="graph" transform="scale(1 1) rotate(0) translate(4 1230)">
<title>main_branch</title>
<polygon fill="white" stroke="none" points="-4,4 -4,-1230 2976,-1230 2976,4 -4,4"/>
<text text-anchor="middle" x="1486" y="-10.8" font-family="Times,serif" font-size="24.00">Diagrama 1</text>
<!-- 1 -->
<g id="node1" class="node"><title>1</title>
<polygon fill="white" stroke="black" points="1582.07,-1226 1408.57,-1226 1363.93,-1184 1537.43,-1184 1582.07,-1226"/>
<text text-anchor="middle" x="1473" y="-1201.3" font-family="Times,serif" font-size="14.00">Mejorar sistema actual</text>
</g>
<!-- 3 -->
<g id="node3" class="node"><title>3</title>
<ellipse fill="white" stroke="black" cx="1473" cy="-1135" rx="10.8" ry="10.8"/>
</g>
<!-- 1&#45;&gt;3 -->
<g id="edge41" class="edge"><title>1&#45;&gt;3</title>
<path fill="none" stroke="black" d="M1473,-1173.81C1473,-1163.76 1473,-1153.26 1473,-1145.89"/>
<polygon fill="black" stroke="black" points="1469.5,-1173.97 1473,-1183.97 1476.5,-1173.97 1469.5,-1173.97"/>
</g>
<!-- 2 -->
<g id="node2" class="node"><title>2</title>
<polygon fill="white" stroke="black" points="994.212,-1086 740.941,-1086 675.788,-1044 929.059,-1044 994.212,-1086"/>
<text text-anchor="middle" x="835" y="-1061.3" font-family="Times,serif" font-size="14.00">Mejorar experiencia del pasajero</text>
</g>
<!-- 5 -->
<g id="node5" class="node"><title>5</title>
<ellipse fill="white" stroke="black" cx="835" cy="-946" rx="10.8" ry="10.8"/>
</g>
<!-- 2&#45;&gt;5 -->
<g id="edge35" class="edge"><title>2&#45;&gt;5</title>
<path fill="none" stroke="black" d="M835,-1033.65C835,-1008.26 835,-973.576 835,-956.835"/>
<polygon fill="black" stroke="black" points="831.5,-1033.89 835,-1043.89 838.5,-1033.89 831.5,-1033.89"/>
</g>
<!-- 23 -->
<g id="node23" class="node"><title>23</title>
<polygon fill="white" stroke="black" points="822.25,-818 651.125,-848 308.875,-848 137.75,-818 308.875,-788 651.125,-788 822.25,-818"/>
<text text-anchor="middle" x="480" y="-814.3" font-family="Times,serif" font-size="14.00">Mejorar proceso de cancelación de viaje</text>
</g>
<!-- 2&#45;&gt;23 -->
<g id="edge25" class="edge"><title>2&#45;&gt;23</title>
<path fill="none" stroke="black" d="M805.949,-1043.95C743.271,-1000.69 595.132,-898.457 522.141,-848.083"/>
</g>
<!-- 3&#45;&gt;2 -->
<g id="edge1" class="edge"><title>3&#45;&gt;2</title>
<path fill="none" stroke="black" d="M1462.19,-1132.85C1407.38,-1127.01 1156.14,-1100.23 988.751,-1082.39"/>
</g>
<!-- 29 -->
<g id="node29" class="node"><title>29</title>
<polygon fill="white" stroke="black" points="1627.21,-1086 1381.89,-1086 1318.79,-1044 1564.11,-1044 1627.21,-1086"/>
<text text-anchor="middle" x="1473" y="-1061.3" font-family="Times,serif" font-size="14.00">Mejorar experiencia del taxista</text>
</g>
<!-- 3&#45;&gt;29 -->
<g id="edge36" class="edge"><title>3&#45;&gt;29</title>
<path fill="none" stroke="black" d="M1473,-1123.97C1473,-1114.07 1473,-1098.65 1473,-1086.2"/>
</g>
<!-- 32 -->
<g id="node32" class="node"><title>32</title>
<polygon fill="white" stroke="black" points="2528.26,-1086 2251.05,-1086 2179.74,-1044 2456.95,-1044 2528.26,-1086"/>
<text text-anchor="middle" x="2354" y="-1061.3" font-family="Times,serif" font-size="14.00">Mejorar experiencia de los gerentes</text>
</g>
<!-- 3&#45;&gt;32 -->
<g id="edge39" class="edge"><title>3&#45;&gt;32</title>
<path fill="none" stroke="black" d="M1483.82,-1133.16C1559.39,-1127.33 2011.65,-1092.42 2232.63,-1075.37"/>
</g>
<!-- 4 -->
<g id="node4" class="node"><title>4</title>
<polygon fill="white" stroke="black" points="1209.04,-839 916.276,-839 840.964,-797 1133.72,-797 1209.04,-839"/>
<text text-anchor="middle" x="1025" y="-814.3" font-family="Times,serif" font-size="14.00">Mejorar proceso de solicitud de viaje</text>
</g>
<!-- 6 -->
<g id="node6" class="node"><title>6</title>
<polygon fill="white" stroke="black" points="1672.36,-749.5 1340.91,-749.5 1255.64,-664.5 1587.09,-664.5 1672.36,-749.5"/>
<text text-anchor="middle" x="1464" y="-710.8" font-family="Times,serif" font-size="14.00">Usuario puede realizar solicitud de manera</text>
<text text-anchor="middle" x="1464" y="-695.8" font-family="Times,serif" font-size="14.00">automática a través de la web</text>
</g>
<!-- 4&#45;&gt;6 -->
<g id="edge3" class="edge"><title>4&#45;&gt;6</title>
<path fill="none" stroke="black" d="M1115.61,-794.502C1178.08,-778.992 1262.12,-758.126 1332,-740.774"/>
<polygon fill="black" stroke="black" points="1114.64,-791.138 1105.78,-796.944 1116.32,-797.931 1114.64,-791.138"/>
</g>
<!-- 20 -->
<g id="node20" class="node"><title>20</title>
<polygon fill="white" stroke="black" points="1236.46,-749.5 857.125,-749.5 759.543,-664.5 1138.87,-664.5 1236.46,-749.5"/>
<text text-anchor="middle" x="998" y="-710.8" font-family="Times,serif" font-size="14.00">Usuario puede realizar solicitud a través de una</text>
<text text-anchor="middle" x="998" y="-695.8" font-family="Times,serif" font-size="14.00">operadora</text>
</g>
<!-- 4&#45;&gt;20 -->
<g id="edge20" class="edge"><title>4&#45;&gt;20</title>
<path fill="none" stroke="black" d="M1017.53,-786.827C1014.69,-775.383 1011.41,-762.138 1008.36,-749.81"/>
<polygon fill="black" stroke="black" points="1014.18,-787.888 1019.98,-796.753 1020.98,-786.205 1014.18,-787.888"/>
</g>
<!-- 5&#45;&gt;4 -->
<g id="edge2" class="edge"><title>5&#45;&gt;4</title>
<path fill="none" stroke="black" d="M835.652,-934.917C837.007,-921.997 841.176,-899.643 854,-886 874.637,-864.045 903.339,-849.169 931.34,-839.138"/>
</g>
<!-- 8 -->
<g id="node8" class="node"><title>8</title>
<ellipse fill="white" stroke="black" cx="1782" cy="-567" rx="10.8" ry="10.8"/>
</g>
<!-- 6&#45;&gt;8 -->
<g id="edge17" class="edge"><title>6&#45;&gt;8</title>
<path fill="none" stroke="black" d="M1569.12,-660.382C1646.02,-627.008 1742,-585.358 1772.34,-572.191"/>
<polygon fill="black" stroke="black" points="1567.62,-657.217 1559.84,-664.408 1570.41,-663.638 1567.62,-657.217"/>
</g>
<!-- 17 -->
<g id="node17" class="node"><title>17</title>
<polygon fill="white" stroke="black" points="1516.25,-248 1321.75,-248 1321.75,-158 1516.25,-158 1516.25,-248"/>
<text text-anchor="middle" x="1419" y="-199.3" font-family="Times,serif" font-size="14.00">Simpleza del sistema</text>
</g>
<!-- 6&#45;&gt;17 -->
<g id="edge19" class="edge"><title>6&#45;&gt;17</title>
<path fill="none" stroke="black" stroke-width="2" stroke-dasharray="1,5" d="M1460.28,-664.492C1452.17,-573.99 1432.89,-358.948 1423.84,-258.038"/>
<polygon fill="black" stroke="black" stroke-width="2" points="1427.33,-257.702 1422.95,-248.055 1420.36,-258.327 1427.33,-257.702"/>
<text text-anchor="middle" x="1450" y="-450.3" font-family="Times,serif" font-size="14.00">&#45;&#45;</text>
</g>
<!-- 19 -->
<g id="node19" class="node"><title>19</title>
<polygon fill="white" stroke="black" points="882,-612 746,-612 746,-522 882,-522 882,-612"/>
<text text-anchor="middle" x="814" y="-563.3" font-family="Times,serif" font-size="14.00">Automatización</text>
</g>
<!-- 6&#45;&gt;19 -->
<g id="edge18" class="edge"><title>6&#45;&gt;19</title>
<path fill="none" stroke="black" stroke-width="2" stroke-dasharray="1,5" d="M1257.13,-666.078C1253.06,-665.372 1249.01,-664.678 1245,-664 1091.42,-638.007 1043.28,-662.843 891.889,-611.97"/>
<polygon fill="black" stroke="black" stroke-width="2" points="892.837,-608.595 882.243,-608.674 890.574,-615.219 892.837,-608.595"/>
<text text-anchor="middle" x="1050.5" y="-634.3" font-family="Times,serif" font-size="14.00">++</text>
</g>
<!-- 7 -->
<g id="node7" class="node"><title>7</title>
<polygon fill="white" stroke="black" points="1758.84,-476.5 1601.16,-476.5 1545,-431.5 1815,-431.5 1758.84,-476.5"/>
<text text-anchor="middle" x="1680" y="-450.3" font-family="Times,serif" font-size="14.00">Usuario dispone de internet</text>
</g>
<!-- 8&#45;&gt;7 -->
<g id="edge4" class="edge"><title>8&#45;&gt;7</title>
<path fill="none" stroke="black" d="M1774.99,-558.371C1759.69,-541.717 1722.82,-501.597 1699.78,-476.521"/>
</g>
<!-- 9 -->
<g id="node9" class="node"><title>9</title>
<polygon fill="white" stroke="black" points="2825.08,-475 2508.39,-475 2426.92,-433 2743.61,-433 2825.08,-475"/>
<text text-anchor="middle" x="2626" y="-450.3" font-family="Times,serif" font-size="14.00">Usuario se puede registrar en el sistema</text>
</g>
<!-- 8&#45;&gt;9 -->
<g id="edge5" class="edge"><title>8&#45;&gt;9</title>
<path fill="none" stroke="black" d="M1792.67,-564.597C1864.99,-555.085 2286.86,-499.602 2501.16,-471.419"/>
</g>
<!-- 11 -->
<g id="node11" class="node"><title>11</title>
<polygon fill="white" stroke="black" points="2291.18,-475 1926.6,-475 1832.82,-433 2197.4,-433 2291.18,-475"/>
<text text-anchor="middle" x="2062" y="-450.3" font-family="Times,serif" font-size="14.00">Ofrecer a usuario listado de taxis disponibles</text>
</g>
<!-- 8&#45;&gt;11 -->
<g id="edge7" class="edge"><title>8&#45;&gt;11</title>
<path fill="none" stroke="black" d="M1791.97,-562.049C1826.6,-548.32 1943.32,-502.047 2011.44,-475.043"/>
</g>
<!-- 10 -->
<g id="node10" class="node"><title>10</title>
<polygon fill="white" stroke="black" points="2763.5,-343 2724.25,-373 2645.75,-373 2606.5,-343 2645.75,-313 2724.25,-313 2763.5,-343"/>
<text text-anchor="middle" x="2685" y="-339.3" font-family="Times,serif" font-size="14.00">TecnoTaxi</text>
</g>
<!-- 9&#45;&gt;10 -->
<g id="edge6" class="edge"><title>9&#45;&gt;10</title>
<path fill="none" stroke="black" d="M2636.96,-432.753C2646.02,-416.007 2659.02,-392.005 2669.2,-373.183"/>
</g>
<!-- 12 -->
<g id="node12" class="node"><title>12</title>
<polygon fill="white" stroke="black" points="2587.18,-385.5 2216.24,-385.5 2120.82,-300.5 2491.76,-300.5 2587.18,-385.5"/>
<text text-anchor="middle" x="2354" y="-346.8" font-family="Times,serif" font-size="14.00">Ofrecer en base a características geográficas y</text>
<text text-anchor="middle" x="2354" y="-331.8" font-family="Times,serif" font-size="14.00">puntuación de los taxistas disponibles</text>
</g>
<!-- 11&#45;&gt;12 -->
<g id="edge8" class="edge"><title>11&#45;&gt;12</title>
<path fill="none" stroke="black" d="M2125.31,-429.365C2159.59,-416.57 2202.94,-400.388 2242.66,-385.562"/>
<polygon fill="black" stroke="black" points="2124.04,-426.104 2115.9,-432.881 2126.49,-432.662 2124.04,-426.104"/>
</g>
<!-- 18 -->
<g id="node18" class="node"><title>18</title>
<polygon fill="white" stroke="black" points="2101.5,-343 1943.75,-373 1628.25,-373 1470.5,-343 1628.25,-313 1943.75,-313 2101.5,-343"/>
<text text-anchor="middle" x="1786" y="-339.3" font-family="Times,serif" font-size="14.00">Ofrecer listado de taxis disponibles</text>
</g>
<!-- 11&#45;&gt;18 -->
<g id="edge14" class="edge"><title>11&#45;&gt;18</title>
<path fill="none" stroke="black" d="M2001.56,-429.129C1959.76,-412.624 1903.92,-390.568 1859.54,-373.043"/>
<polygon fill="black" stroke="black" points="2000.47,-432.463 2011.06,-432.881 2003.04,-425.952 2000.47,-432.463"/>
</g>
<!-- 14 -->
<g id="node14" class="node"><title>14</title>
<ellipse fill="white" stroke="black" cx="2354" cy="-203" rx="10.8" ry="10.8"/>
</g>
<!-- 12&#45;&gt;14 -->
<g id="edge11" class="edge"><title>12&#45;&gt;14</title>
<path fill="none" stroke="black" d="M2354,-290.071C2354,-261.922 2354,-229.728 2354,-213.878"/>
<polygon fill="black" stroke="black" points="2350.5,-290.221 2354,-300.221 2357.5,-290.221 2350.5,-290.221"/>
</g>
<!-- 16 -->
<g id="node16" class="node"><title>16</title>
<polygon fill="white" stroke="black" points="2173.5,-248 1950.5,-248 1950.5,-158 2173.5,-158 2173.5,-248"/>
<text text-anchor="middle" x="2062" y="-199.3" font-family="Times,serif" font-size="14.00">Experiencia del usuario</text>
</g>
<!-- 12&#45;&gt;16 -->
<g id="edge12" class="edge"><title>12&#45;&gt;16</title>
<path fill="none" stroke="black" stroke-width="2" stroke-dasharray="1,5" d="M2265.99,-300.408C2233.99,-285.283 2197.55,-268.061 2164.41,-252.397"/>
<polygon fill="black" stroke="black" stroke-width="2" points="2165.69,-249.132 2155.15,-248.024 2162.7,-255.461 2165.69,-249.132"/>
<text text-anchor="middle" x="2234.5" y="-270.3" font-family="Times,serif" font-size="14.00">++</text>
</g>
<!-- 12&#45;&gt;17 -->
<g id="edge13" class="edge"><title>12&#45;&gt;17</title>
<path fill="none" stroke="black" stroke-width="2" stroke-dasharray="1,5" d="M2121.93,-301.562C2117.92,-301.024 2113.94,-300.503 2110,-300 2014.44,-287.818 1989.61,-293.814 1894,-282 1767.24,-266.335 1622.52,-241.572 1526.48,-224.158"/>
<polygon fill="black" stroke="black" stroke-width="2" points="1526.93,-220.684 1516.47,-222.338 1525.68,-227.571 1526.93,-220.684"/>
<text text-anchor="middle" x="1899" y="-270.3" font-family="Times,serif" font-size="14.00">&#45;&#45;</text>
</g>
<!-- 13 -->
<g id="node13" class="node"><title>13</title>
<polygon fill="white" stroke="black" points="2357.23,-98 1962.35,-98 1860.77,-56 2255.65,-56 2357.23,-98"/>
<text text-anchor="middle" x="2109" y="-73.3" font-family="Times,serif" font-size="14.00">Poseer información sobre la ubicación de los taxis</text>
</g>
<!-- 14&#45;&gt;13 -->
<g id="edge9" class="edge"><title>14&#45;&gt;13</title>
<path fill="none" stroke="black" d="M2344.69,-197.29C2312.88,-181.188 2207.17,-127.688 2148.72,-98.1037"/>
</g>
<!-- 15 -->
<g id="node15" class="node"><title>15</title>
<polygon fill="white" stroke="black" points="2823.41,-119.5 2468.02,-119.5 2376.59,-34.5 2731.98,-34.5 2823.41,-119.5"/>
<text text-anchor="middle" x="2600" y="-80.8" font-family="Times,serif" font-size="14.00">Poseer información sobre la puntuación de los</text>
<text text-anchor="middle" x="2600" y="-65.8" font-family="Times,serif" font-size="14.00">taxis</text>
</g>
<!-- 14&#45;&gt;15 -->
<g id="edge10" class="edge"><title>14&#45;&gt;15</title>
<path fill="none" stroke="black" d="M2363.34,-197.29C2388.53,-184.594 2459.84,-148.649 2517.65,-119.508"/>
</g>
<!-- 18&#45;&gt;16 -->
<g id="edge16" class="edge"><title>18&#45;&gt;16</title>
<path fill="none" stroke="black" stroke-width="2" stroke-dasharray="1,5" d="M1844.2,-312.902C1879.19,-295.405 1924.62,-272.692 1964.92,-252.54"/>
<polygon fill="black" stroke="black" stroke-width="2" points="1966.59,-255.617 1973.97,-248.015 1963.46,-249.356 1966.59,-255.617"/>
<text text-anchor="middle" x="1938" y="-270.3" font-family="Times,serif" font-size="14.00">&#45;&#45;</text>
</g>
<!-- 18&#45;&gt;17 -->
<g id="edge15" class="edge"><title>18&#45;&gt;17</title>
<path fill="none" stroke="black" stroke-width="2" stroke-dasharray="1,5" d="M1708.62,-312.902C1655.63,-292.977 1584.65,-266.288 1526.22,-244.318"/>
<polygon fill="black" stroke="black" stroke-width="2" points="1527.18,-240.938 1516.59,-240.695 1524.72,-247.491 1527.18,-240.938"/>
<text text-anchor="middle" x="1633.5" y="-270.3" font-family="Times,serif" font-size="14.00">++</text>
</g>
<!-- 20&#45;&gt;17 -->
<g id="edge23" class="edge"><title>20&#45;&gt;17</title>
<path fill="none" stroke="black" stroke-width="2" stroke-dasharray="1,5" d="M1152.08,-675.877C1249.44,-655.449 1359.87,-629.143 1376,-612 1409.46,-576.452 1396,-552.816 1396,-504 1396,-504 1396,-504 1396,-342 1396,-314.018 1400.66,-283.272 1405.78,-257.918"/>
<polygon fill="black" stroke="black" stroke-width="2" points="1409.21,-258.631 1407.84,-248.126 1402.36,-257.194 1409.21,-258.631"/>
<text text-anchor="middle" x="1404.5" y="-450.3" font-family="Times,serif" font-size="14.00">++</text>
</g>
<!-- 20&#45;&gt;19 -->
<g id="edge24" class="edge"><title>20&#45;&gt;19</title>
<path fill="none" stroke="black" stroke-width="2" stroke-dasharray="1,5" d="M942.295,-664.221C922.958,-649.718 901.074,-633.305 880.926,-618.195"/>
<polygon fill="black" stroke="black" stroke-width="2" points="882.809,-615.232 872.709,-612.032 878.609,-620.832 882.809,-615.232"/>
<text text-anchor="middle" x="923" y="-634.3" font-family="Times,serif" font-size="14.00">&#45;&#45;</text>
</g>
<!-- 21 -->
<g id="node21" class="node"><title>21</title>
<polygon fill="white" stroke="black" points="1367.18,-609.5 996.241,-609.5 900.818,-524.5 1271.76,-524.5 1367.18,-609.5"/>
<text text-anchor="middle" x="1134" y="-570.8" font-family="Times,serif" font-size="14.00">Disponibilidad del sistema a través de una</text>
<text text-anchor="middle" x="1134" y="-555.8" font-family="Times,serif" font-size="14.00">interfaz local para que lo utilice la operadora</text>
</g>
<!-- 20&#45;&gt;21 -->
<g id="edge21" class="edge"><title>20&#45;&gt;21</title>
<path fill="none" stroke="black" d="M1039.17,-664.221C1056.22,-646.927 1075.94,-626.916 1092.97,-609.637"/>
</g>
<!-- 22 -->
<g id="node22" class="node"><title>22</title>
<polygon fill="white" stroke="black" points="1212.5,-454 1173.25,-484 1094.75,-484 1055.5,-454 1094.75,-424 1173.25,-424 1212.5,-454"/>
<text text-anchor="middle" x="1134" y="-450.3" font-family="Times,serif" font-size="14.00">TecnoTaxi</text>
</g>
<!-- 21&#45;&gt;22 -->
<g id="edge22" class="edge"><title>21&#45;&gt;22</title>
<path fill="none" stroke="black" d="M1134,-524.352C1134,-510.941 1134,-496.378 1134,-484.074"/>
</g>
<!-- 24 -->
<g id="node24" class="node"><title>24</title>
<polygon fill="white" stroke="black" points="315.89,-728 102.901,-728 48.11,-686 261.099,-686 315.89,-728"/>
<text text-anchor="middle" x="182" y="-703.3" font-family="Times,serif" font-size="14.00">Cancelar a través de la web</text>
</g>
<!-- 23&#45;&gt;24 -->
<g id="edge26" class="edge"><title>23&#45;&gt;24</title>
<path fill="none" stroke="black" d="M390.987,-784.441C340.873,-766.111 279.891,-743.806 236.769,-728.033"/>
<polygon fill="black" stroke="black" points="389.939,-787.785 400.533,-787.933 392.344,-781.211 389.939,-787.785"/>
</g>
<!-- 26 -->
<g id="node26" class="node"><title>26</title>
<polygon fill="white" stroke="black" points="662.988,-728 402.12,-728 335.012,-686 595.88,-686 662.988,-728"/>
<text text-anchor="middle" x="499" y="-703.3" font-family="Times,serif" font-size="14.00">Cancelar a través de la operadora</text>
</g>
<!-- 23&#45;&gt;26 -->
<g id="edge30" class="edge"><title>23&#45;&gt;26</title>
<path fill="none" stroke="black" d="M486.849,-777.706C489.765,-760.979 493.043,-742.175 495.459,-728.316"/>
<polygon fill="black" stroke="black" points="483.361,-777.337 485.092,-787.79 490.257,-778.54 483.361,-777.337"/>
</g>
<!-- 24&#45;&gt;17 -->
<g id="edge29" class="edge"><title>24&#45;&gt;17</title>
<path fill="none" stroke="black" stroke-width="2" stroke-dasharray="1,5" d="M182.948,-685.894C184.131,-659.031 186,-609.945 186,-568 186,-568 186,-568 186,-342 186,-269.633 258.749,-278.657 330,-266 516.13,-232.937 1074.32,-213.734 1311.02,-206.883"/>
<polygon fill="black" stroke="black" stroke-width="2" points="1311.46,-210.372 1321.36,-206.586 1311.26,-203.375 1311.46,-210.372"/>
<text text-anchor="middle" x="191" y="-450.3" font-family="Times,serif" font-size="14.00">&#45;&#45;</text>
</g>
<!-- 24&#45;&gt;19 -->
<g id="edge28" class="edge"><title>24&#45;&gt;19</title>
<path fill="none" stroke="black" stroke-width="2" stroke-dasharray="1,5" d="M242.775,-685.966C268.255,-678.172 298.336,-669.751 326,-664 370.959,-654.653 692.409,-626.44 736,-612 736.101,-611.966 736.203,-611.933 736.304,-611.899"/>
<polygon fill="black" stroke="black" stroke-width="2" points="737.611,-615.147 745.768,-608.385 735.175,-608.585 737.611,-615.147"/>
<text text-anchor="middle" x="625.5" y="-634.3" font-family="Times,serif" font-size="14.00">++</text>
</g>
<!-- 25 -->
<g id="node25" class="node"><title>25</title>
<polygon fill="white" stroke="black" points="157.5,-567 118.25,-597 39.75,-597 0.5,-567 39.75,-537 118.25,-537 157.5,-567"/>
<text text-anchor="middle" x="79" y="-563.3" font-family="Times,serif" font-size="14.00">TecnoTaxi</text>
</g>
<!-- 24&#45;&gt;25 -->
<g id="edge27" class="edge"><title>24&#45;&gt;25</title>
<path fill="none" stroke="black" d="M167.023,-685.934C149.615,-662.61 120.737,-623.919 100.832,-597.25"/>
</g>
<!-- 26&#45;&gt;17 -->
<g id="edge33" class="edge"><title>26&#45;&gt;17</title>
<path fill="none" stroke="black" stroke-width="2" stroke-dasharray="1,5" d="M393.812,-685.964C345.331,-672.151 290.03,-649.3 251,-612 235.601,-597.283 232,-589.301 232,-568 232,-568 232,-568 232,-342 232,-233.877 1019.12,-210.337 1311.42,-205.323"/>
<polygon fill="black" stroke="black" stroke-width="2" points="1311.67,-208.82 1321.61,-205.153 1311.55,-201.821 1311.67,-208.82"/>
<text text-anchor="middle" x="240.5" y="-450.3" font-family="Times,serif" font-size="14.00">++</text>
</g>
<!-- 26&#45;&gt;19 -->
<g id="edge34" class="edge"><title>26&#45;&gt;19</title>
<path fill="none" stroke="black" stroke-width="2" stroke-dasharray="1,5" d="M557.138,-685.984C605.838,-668.502 676.704,-641.379 736,-612 736.2,-611.901 736.401,-611.801 736.601,-611.702"/>
<polygon fill="black" stroke="black" stroke-width="2" points="738.413,-614.707 745.739,-607.053 735.239,-608.468 738.413,-614.707"/>
<text text-anchor="middle" x="697" y="-634.3" font-family="Times,serif" font-size="14.00">&#45;&#45;</text>
</g>
<!-- 27 -->
<g id="node27" class="node"><title>27</title>
<polygon fill="white" stroke="black" points="727.182,-609.5 356.241,-609.5 260.818,-524.5 631.759,-524.5 727.182,-609.5"/>
<text text-anchor="middle" x="494" y="-570.8" font-family="Times,serif" font-size="14.00">Disponibilidad del sistema a través de una</text>
<text text-anchor="middle" x="494" y="-555.8" font-family="Times,serif" font-size="14.00">interfaz local para que lo utilice la operadora</text>
</g>
<!-- 26&#45;&gt;27 -->
<g id="edge31" class="edge"><title>26&#45;&gt;27</title>
<path fill="none" stroke="black" d="M498.273,-685.934C497.553,-666.049 496.427,-634.994 495.512,-609.742"/>
</g>
<!-- 28 -->
<g id="node28" class="node"><title>28</title>
<polygon fill="white" stroke="black" points="572.5,-454 533.25,-484 454.75,-484 415.5,-454 454.75,-424 533.25,-424 572.5,-454"/>
<text text-anchor="middle" x="494" y="-450.3" font-family="Times,serif" font-size="14.00">TecnoTaxi</text>
</g>
<!-- 27&#45;&gt;28 -->
<g id="edge32" class="edge"><title>27&#45;&gt;28</title>
<path fill="none" stroke="black" d="M494,-524.352C494,-510.941 494,-496.378 494,-484.074"/>
</g>
<!-- 30 -->
<g id="node30" class="node"><title>30</title>
<polygon fill="white" stroke="black" points="1548.25,-946 1377.12,-976 1034.88,-976 863.75,-946 1034.87,-916 1377.12,-916 1548.25,-946"/>
<text text-anchor="middle" x="1206" y="-942.3" font-family="Times,serif" font-size="14.00">Mejorar proceso de asignación de viajes</text>
</g>
<!-- 29&#45;&gt;30 -->
<g id="edge37" class="edge"><title>29&#45;&gt;30</title>
<path fill="none" stroke="black" d="M1427.1,-1043.89C1384.46,-1025.2 1320.47,-997.159 1272.28,-976.045"/>
</g>
<!-- 31 -->
<g id="node31" class="node"><title>31</title>
<polygon fill="white" stroke="black" points="2251.25,-946 2080.12,-976 1737.88,-976 1566.75,-946 1737.87,-916 2080.12,-916 2251.25,-946"/>
<text text-anchor="middle" x="1909" y="-942.3" font-family="Times,serif" font-size="14.00">Mejorar proceso de cancelación de viaje</text>
</g>
<!-- 29&#45;&gt;31 -->
<g id="edge38" class="edge"><title>29&#45;&gt;31</title>
<path fill="none" stroke="black" d="M1547.95,-1043.89C1617.58,-1025.2 1722.08,-997.159 1800.77,-976.045"/>
</g>
<!-- 33 -->
<g id="node33" class="node"><title>33</title>
<polygon fill="white" stroke="black" points="2972,-946 2796.5,-1006 2445.5,-1006 2270,-946 2445.5,-886 2796.5,-886 2972,-946"/>
<text text-anchor="middle" x="2621" y="-949.8" font-family="Times,serif" font-size="14.00">Incrementar información estadística útil</text>
<text text-anchor="middle" x="2621" y="-934.8" font-family="Times,serif" font-size="14.00">disponible</text>
</g>
<!-- 32&#45;&gt;33 -->
<g id="edge40" class="edge"><title>32&#45;&gt;33</title>
<path fill="none" stroke="black" d="M2399.9,-1043.89C2424.05,-1033.3 2455.06,-1019.72 2486.16,-1006.09"/>
</g>
</g>
</svg>
